<?xml version="1.0" standalone="no"?>
<!DOCTYPE svg PUBLIC "-//W3C//DTD SVG 20010904//EN"
 "http://www.w3.org/TR/2001/REC-SVG-20010904/DTD/svg10.dtd">
<svg version="1.0" xmlns="http://www.w3.org/2000/svg"
 width="214.000000pt" height="200.000000pt" viewBox="0 0 214.000000 200.000000"
 preserveAspectRatio="xMidYMid meet">

<g transform="translate(0.000000,200.000000) scale(0.100000,-0.100000)"
fill="#000000" stroke="none">
<path d="M16 1988 c5 -7 190 -255 412 -552 l404 -538 -34 -37 c-19 -20 -180
-193 -358 -386 -178 -192 -350 -378 -384 -412 l-60 -63 96 0 95 0 351 378
c192 208 357 383 365 390 13 11 57 -43 307 -378 l292 -390 319 0 319 0 -436
581 c-429 574 -435 582 -417 602 32 37 644 700 702 760 l55 57 -95 0 -95 0
-334 -360 c-183 -198 -335 -358 -339 -355 -3 2 -125 164 -271 359 l-265 355
-318 1 c-252 0 -317 -3 -311 -12z m1174 -950 c338 -452 628 -839 643 -860 l29
-38 -146 0 -146 0 -640 855 c-352 471 -640 858 -640 860 0 3 64 5 143 5 l143
0 614 -822z"/>
</g>
</svg>
